<svg xmlns="http://www.w3.org/2000/svg" id="supermassiveLogo" viewBox="0 0 606.48 205.97">
  <defs>
    <style>
      <!-- .cls-1,.cls-2,.cls-3{fill:#ce3427}.cls-1,.cls-2,.cls-4{stroke:#fff;stroke-width:.75px}.cls-1,.cls-4{stroke-miterlimit:10}.cls-4{fill:none} -->
    </style>
  </defs>
  <g id="Layer_2" data-name="Layer 2">
    <g id="Layer_1-2" data-name="Layer 1">
      <path class="supermassiveLogoOrange supermassiveLogoWhite" fill="transparent" d="M334.28 160.38V203a.82.82 0 01-.29.66 1.08 1.08 0 01-.66.23.92.92 0 01-.9-.89v-42.62a.67.67 0 00-.31-.61 2.71 2.71 0 112.48 0 .79.79 0 00-.32.61zM440.45 100.84a.56.56 0 00-.33.65 2.77 2.77 0 01-1.11 2.69 2.75 2.75 0 01-1.93.53.86.86 0 00-.77.49 8.67 8.67 0 00-.7 3.54 8.12 8.12 0 001.35 4.84 10.49 10.49 0 003.56 3.08 22.5 22.5 0 005 1.94c1.88.49 3.82 1 5.8 1.42s3.93.94 5.81 1.47a19.67 19.67 0 015 2.19 11.29 11.29 0 013.57 3.51 10 10 0 011.35 5.45 11.46 11.46 0 01-1.45 5.83 12.73 12.73 0 01-3.8 4.13 17.94 17.94 0 01-5.29 2.46 21.43 21.43 0 01-5.86.83 24.42 24.42 0 01-9.89-2 28.4 28.4 0 01-8.36-5.54 1 1 0 01-.36-.67 1 1 0 01.3-.71 1 1 0 01.74-.34.84.84 0 01.61.31 37.74 37.74 0 007.91 5.14 21.25 21.25 0 009.2 1.93 19.18 19.18 0 005.14-.7 14.91 14.91 0 004.61-2.16 11.23 11.23 0 003.33-3.6 9.77 9.77 0 001.26-5 7.18 7.18 0 00-1.11-4 10.2 10.2 0 00-2.89-2.89 17.49 17.49 0 00-4.09-2q-2.31-.81-4.65-1.39c-1.56-.39-3.08-.73-4.58-1s-2.8-.58-3.91-.87a20.36 20.36 0 01-3.91-1.5 13 13 0 01-3.29-2.37 11.05 11.05 0 01-2.25-3.29 11.16 11.16 0 01.22-8.95 1.31 1.31 0 00.05-1.12 2.8 2.8 0 013.81-3.64 1 1 0 00.9-.15 18.4 18.4 0 014.5-1.9 20.84 20.84 0 015.51-.76 24.34 24.34 0 013.91.35 31.38 31.38 0 014.43.93 26.83 26.83 0 014.1 1.67 13.81 13.81 0 013.19 2.22 2.31 2.31 0 01.28.3.71.71 0 01.1.44.93.93 0 01-.32.67.91.91 0 01-.67.31 1.26 1.26 0 01-.46-.18 8.75 8.75 0 01-.74-.47c-.27-.18-.51-.35-.74-.49l-.52-.34a27.55 27.55 0 00-5.91-2.64 21.31 21.31 0 00-6.46-1 20.72 20.72 0 00-4.8.59 16.1 16.1 0 00-4.39 1.76zM501.69 141.66a.54.54 0 00.31-.66 2.8 2.8 0 011.12-2.69 2.75 2.75 0 011.93-.53.84.84 0 00.76-.49 8.51 8.51 0 00.71-3.54 8 8 0 00-1.36-4.84 10.39 10.39 0 00-3.56-3.08 22.23 22.23 0 00-5-1.94c-1.89-.49-3.82-1-5.81-1.42s-3.92-.94-5.8-1.48a19.31 19.31 0 01-5-2.18 11.22 11.22 0 01-3.57-3.52 10 10 0 01-1.35-5.45 11.42 11.42 0 011.45-5.82 12.73 12.73 0 013.8-4.13 17.69 17.69 0 015.29-2.46 21.06 21.06 0 015.86-.83 24.42 24.42 0 019.89 2 19.18 19.18 0 016.87 4.49.87.87 0 01.06 1.38.94.94 0 01-.74.34.88.88 0 01-.61-.31 24.12 24.12 0 00-6.42-4.09 21.3 21.3 0 00-9.21-1.94 19.18 19.18 0 00-5.13.71 14.84 14.84 0 00-4.62 2.16 11.39 11.39 0 00-3.32 3.59 9.83 9.83 0 00-1.26 5 7.18 7.18 0 001.11 4 10.2 10.2 0 002.89 2.89 17.49 17.49 0 004.09 2q2.31.81 4.65 1.39c1.55.39 3.08.73 4.58 1s2.8.58 3.91.86a21 21 0 013.9 1.51 12.81 12.81 0 013.29 2.37 10.58 10.58 0 012.25 3.29 11.21 11.21 0 01-.21 8.95 1.31 1.31 0 00-.05 1.12 2.8 2.8 0 01-3.81 3.64 1 1 0 00-.9.15 18.37 18.37 0 01-4.5 1.89 20.51 20.51 0 01-5.51.77 25.44 25.44 0 01-3.91-.35 31.86 31.86 0 01-4.37-1 26.71 26.71 0 01-4.09-1.67 35.17 35.17 0 01-5.09-3.56 3 3 0 01-.27-.3.7.7 0 01-.1-.43 1 1 0 01.31-.68.93.93 0 01.68-.31 1.33 1.33 0 01.46.18c.23.13.49.37.75.55a17.13 17.13 0 002.55 1.73c.22.15.47.27.59.36A27.82 27.82 0 00486 143a21.31 21.31 0 006.46 1 20.72 20.72 0 004.8-.59 16.1 16.1 0 004.43-1.75zM519.86 102.34V145a.78.78 0 01-.3.65 1 1 0 01-.66.24.86.86 0 01-.62-.27.83.83 0 01-.28-.62v-42.66a.67.67 0 00-.32-.61 2.72 2.72 0 112.48 0 .77.77 0 00-.3.61z"/>
      <path class="supermassiveLogoOrange supermassiveLogoWhite" fill="transparent" d="M376 155.61a.92.92 0 01-.28.67.87.87 0 01-.65.29h-30.4a.89.89 0 01-.65-.29 1 1 0 01-.28-.67 1 1 0 01.28-.67.85.85 0 01.65-.29h30.44a.84.84 0 01.65.29.91.91 0 01.24.67z"/>
      <path class="supermassiveLogoOrange supermassiveLogoWhite" fill="transparent" d="M371.32 160.53H375a1.34 1.34 0 001.1-.31 2.46 2.46 0 012.33-1.33 2.72 2.72 0 11-2.35 4.11 1.31 1.31 0 00-.79-.42H361v40.54a.84.84 0 01-.31.65 1 1 0 01-.65.28 1 1 0 01-.66-.25.81.81 0 01-.3-.68v-40.54h-14.41a.88.88 0 01-.65-.31 1 1 0 01-.28-.68 1.14 1.14 0 01.25-.71.79.79 0 01.68-.34h26.65"/>
      <path class="supermassiveLogoOrange supermassiveLogoWhite" fill="transparent" d="M222.4 155.61a.92.92 0 01-.28.67.87.87 0 01-.65.29H191a.89.89 0 01-.65-.29 1 1 0 01-.28-.67 1 1 0 01.28-.67.85.85 0 01.65-.29h30.44a.84.84 0 01.65.29.91.91 0 01.31.67z"/>
      <path class="supermassiveLogoOrange supermassiveLogoWhite" fill="transparent" d="M217.68 160.53h3.66a1.34 1.34 0 001.1-.31 2.46 2.46 0 012.33-1.33 2.72 2.72 0 11-2.35 4.11 1.31 1.31 0 00-.79-.42h-14.26v40.54a.84.84 0 01-.31.65 1 1 0 01-.65.28 1 1 0 01-.66-.25.81.81 0 01-.3-.68v-40.54H191a.88.88 0 01-.65-.31 1 1 0 01-.28-.68 1.14 1.14 0 01.25-.71.79.79 0 01.68-.34h26.65"/>
      <path class="supermassiveLogoOrange supermassiveLogoWhite" fill="transparent" d="M323 179.34a24.12 24.12 0 01-2 9.66 24.68 24.68 0 01-13.12 13.12 24.75 24.75 0 01-19.26 0A24.68 24.68 0 01275.53 189a24.75 24.75 0 010-19.26 24.68 24.68 0 0113.12-13.12 24.87 24.87 0 0119.26 0A24.68 24.68 0 01321 169.71a24.19 24.19 0 012 9.63zm-1.91 0a22.09 22.09 0 00-1.79-8.83 23.14 23.14 0 00-12.17-12.16 22.65 22.65 0 00-17.65 0 23.17 23.17 0 00-12.16 12.16 22.67 22.67 0 000 17.66 23.08 23.08 0 0012.16 12.16 22.65 22.65 0 0017.65 0 23 23 0 0012.17-12.16 22.05 22.05 0 001.76-8.83z"/>
      <circle class="supermassiveLogoOrange" fill="transparent" cx="298.28" cy="179.4" r="19.49"/>
      <path class="supermassiveLogoOrange supermassiveLogoWhite" fill="transparent" d="M173.31 181.76c.58 0 .8-.11 1.35-.67a2.72 2.72 0 11-.14 3.3 1.35 1.35 0 00-1.21-.73h-21.13v18.18h29.33a.8.8 0 01.64.34 1.06 1.06 0 01.28.7 1.14 1.14 0 01-.25.71.77.77 0 01-.67.34h-30.22a.93.93 0 01-.73-.31 1 1 0 01-.29-.74v-47.31a.83.83 0 01.32-.68 1.12 1.12 0 01.7-.24h30.22a.83.83 0 01.64.29.93.93 0 010 1.33.87.87 0 01-.64.29h-29.33v19H175a.87.87 0 01.64.29.94.94 0 010 1.34.86.86 0 01-.64.28h-22.7l-.06 4.26zM597 125.62h-21.14v18.18h29.33a.8.8 0 01.64.34 1.06 1.06 0 01.28.7 1.14 1.14 0 01-.25.71.77.77 0 01-.67.34H575a.93.93 0 01-.73-.31 1 1 0 01-.29-.74V97.53a.83.83 0 01.32-.68 1.12 1.12 0 01.7-.24h30.22a.86.86 0 01.64.28.94.94 0 01.28.67.91.91 0 01-.28.67.87.87 0 01-.64.29h-29.36v19h22.86a.87.87 0 01.64.29.91.91 0 01.28.67.92.92 0 01-.28.67.86.86 0 01-.64.28H576l-.07 4.25H597c.59 0 .8-.11 1.35-.66a2.72 2.72 0 11-.14 3.3 1.33 1.33 0 00-1.21-.7zM265.91 161.84a2.81 2.81 0 00-2.56-2.71c-.74-.12-1-.92-1.48-1.34a10.85 10.85 0 00-3.54-2.31 11.57 11.57 0 00-4.38-.83h-17.87a.82.82 0 00-.92.92V203a.84.84 0 00.28.64.86.86 0 00.64.28 1.09 1.09 0 00.68-.24.85.85 0 00.31-.68v-46.44h4V203a.94.94 0 00.92.92 1.09 1.09 0 00.68-.24.85.85 0 00.33-.68v-26.06h8.26l11.95 26.43a.87.87 0 00.86.55 1.19 1.19 0 00.68-.21.76.76 0 00.31-.65 10.41 10.41 0 00-.68-1.69c-.45-1-1-2.25-1.69-3.73l-2.22-4.81q-1.2-2.58-2.28-4.93l-1.88-4.06c-.53-1.15-3-6.57-3.13-6.9h1.44a3.31 3.31 0 00.64-.06 11.8 11.8 0 004-1.3 11.1 11.1 0 003.11-2.46 11.27 11.27 0 002-3.42 11.46 11.46 0 00.74-4.1v-.6a1.81 1.81 0 01.37-1.37 4 4 0 00.43-1.79zm-3.43 7.46a9.33 9.33 0 01-2 3 9.21 9.21 0 01-3 2 9 9 0 01-3.6.74H243v-18.48h11a9.14 9.14 0 013.58.7 9.67 9.67 0 012.92 1.94 1.46 1.46 0 01.26 1.54 3.09 3.09 0 00-.24 1.1 2.72 2.72 0 001.74 2.54 1.44 1.44 0 011 1.26 9.4 9.4 0 01-.78 3.66z"/>
      <path class="supermassiveLogoWhite" fill="transparent" d="M19.94 143.72c.6.75 1.27 1.53 2 2.27"/>
      <path class="supermassiveLogoOrange supermassiveLogoWhite" fill="transparent" d="M380.45 97.46a.62.62 0 01-.06.36v46.47a.87.87 0 01-.27.64.88.88 0 01-.64.28.78.78 0 01-.6-.28.89.89 0 01-.25-.64v-43.86l-21 29.35c.17.28.53.81 1.1 1.58l2 2.7c.75 1 1.55 2.1 2.4 3.22s1.62 2.17 2.31 3.16 1.26 1.83 1.73 2.52a4 4 0 01.7 1.27.87.87 0 01-.31.7 1 1 0 01-.66.28.83.83 0 01-.73-.37l-33.4-46.53a1 1 0 01-.19-.61.94.94 0 01.24-.64.9.9 0 011.4.15l22.3 31L378.75 97a.78.78 0 01.67-.36 1.16 1.16 0 01.7.24.72.72 0 01.33.58z"/>
      <path class="supermassiveLogoOrange supermassiveLogoWhite" fill="transparent" d="M332.46 140v-32.22a1.38 1.38 0 01.24-.78.82.82 0 011.41.06c.28.4.88 1.22 1.78 2.46s2 2.74 3.29 4.52 2.69 3.75 4.25 5.89 3.13 4.33 4.71 6.53 3.11 4.36 4.58 6.44 2.8 3.95 3.95 5.59 2.08 3 2.77 4a10.17 10.17 0 011 1.76.81.81 0 01-.31.64 1 1 0 01-.66.28.82.82 0 01-.73-.37l-24.42-34.26V140a1 1 0 00.27.8 2.77 2.77 0 11-2.53 0 1 1 0 00.4-.8zM411.77 129.28l6.35 16a.86.86 0 00.86.61.42.42 0 00.18 0 .47.47 0 01.19 0 .81.81 0 00.65-.89s-.21-.61-.62-1.7-1-2.51-1.63-4.28-1.46-3.78-2.34-6l-1.74-4.4a1.09 1.09 0 01.13-.92 2.8 2.8 0 00.39-3 2.77 2.77 0 00-2.45-1.58c-.22-.08-.34-.29-.51-.65-.41-1-.94-2.39-1.34-3.41q-1.35-3.48-2.52-6.35c-.79-1.91-1.44-3.52-2-4.83s-.89-2.14-1.05-2.47l2-5.23 17.93 45.22a.84.84 0 00.92.61.86.86 0 00.65-.28.88.88 0 00.28-.64s-.26-.72-.78-2-1.17-3-2-5.14-1.77-4.53-2.86-7.24-2.2-5.49-3.33-8.34-2.26-5.68-3.39-8.48-2.14-5.35-3-7.67-1.68-4.27-2.32-5.85-1-2.6-1.2-3a.8.8 0 00-.86-.55.91.91 0 00-.92.55c-.17.45-.56 1.47-1.17 3s-1.37 3.53-2.25 5.85-1.87 4.88-3 7.67-2.18 5.62-3.26 8.48-2.16 5.63-3.21 8.34-2 5.11-2.77 7.21-1.45 3.8-1.94 5.11-.74 2-.74 2a.85.85 0 00.61.92h.16a.24.24 0 00.15 0 .92.92 0 00.93-.61L403.3 108l6 15.24a1.06 1.06 0 010 .93 2.81 2.81 0 001.69 4.44c.48 0 .67.47.78.67zM110.86 100.84a.54.54 0 00-.32.65 2.8 2.8 0 01-1.12 2.69 2.75 2.75 0 01-1.93.53.84.84 0 00-.76.49 8.51 8.51 0 00-.71 3.54 8.06 8.06 0 001.36 4.84 10.39 10.39 0 003.56 3.08 22.23 22.23 0 005 1.94c1.89.49 3.82 1 5.81 1.42s3.92.94 5.8 1.47a19.67 19.67 0 015 2.19 11.3 11.3 0 013.57 3.51 10 10 0 011.35 5.45 11.46 11.46 0 01-1.45 5.83 12.62 12.62 0 01-3.8 4.13 18 18 0 01-5.28 2.46 21.56 21.56 0 01-5.87.83 24.42 24.42 0 01-9.89-2 28.53 28.53 0 01-8.36-5.54 1 1 0 01-.36-.67 1 1 0 01.3-.71 1 1 0 01.74-.34.88.88 0 01.62.31 37.43 37.43 0 007.9 5.14 21.29 21.29 0 009.21 1.93 19.16 19.16 0 005.13-.7 15.07 15.07 0 004.62-2.16 11.31 11.31 0 003.32-3.6 9.77 9.77 0 001.26-5 7.18 7.18 0 00-1.11-4 10.2 10.2 0 00-2.89-2.89 17.49 17.49 0 00-4.09-2q-2.31-.81-4.65-1.39c-1.55-.39-3.08-.73-4.58-1s-2.8-.58-3.91-.87a20.27 20.27 0 01-3.9-1.5 12.81 12.81 0 01-3.29-2.37 10.69 10.69 0 01-2.25-3.29 11.21 11.21 0 01.21-8.95 1.31 1.31 0 000-1.12 2.8 2.8 0 013.9-3.75 1 1 0 00.91-.15 18.16 18.16 0 014.49-1.9 20.89 20.89 0 015.51-.76 24.24 24.24 0 013.91.35 31.86 31.86 0 014.39 1.04 26.71 26.71 0 014.09 1.67 13.88 13.88 0 013.2 2.22 3 3 0 01.27.3.71.71 0 01.1.44 1 1 0 01-.31.67.93.93 0 01-.68.31 1.33 1.33 0 01-.46-.18c-.22-.13-.47-.28-.73-.47l-.75-.49-.52-.34a27.11 27.11 0 00-5.91-2.64 21.31 21.31 0 00-6.46-1 20.79 20.79 0 00-4.8.59 16.23 16.23 0 00-4.39 1.76z"/>
      <path class="supermassiveLogoOrange supermassiveLogoWhite" fill="transparent" d="M258.06 125.62h-21.12v18.18h29.32a.82.82 0 01.65.34 1.1 1.1 0 01.27.7 1.19 1.19 0 01-.24.71.79.79 0 01-.68.34H236a1 1 0 01-.73-.31 1 1 0 01-.28-.74V97.53a.82.82 0 01.31-.68 1.16 1.16 0 01.7-.24h30.22a.88.88 0 01.65.28 1 1 0 01.27.67.94.94 0 01-.27.67.89.89 0 01-.65.29h-29.28v19h22.85a.89.89 0 01.65.29 1 1 0 01.28.67 1 1 0 01-.28.67.88.88 0 01-.65.28h-22.73l-.06 4.25h21.06a1.52 1.52 0 001.35-.66 2.72 2.72 0 11-.14 3.3 1.34 1.34 0 00-1.21-.7zM314.26 103.8a2.81 2.81 0 00-2.56-2.71c-.74-.12-1-.92-1.48-1.34a10.85 10.85 0 00-3.54-2.31 11.38 11.38 0 00-4.38-.83h-17.87a.81.81 0 00-.92.92V145a.84.84 0 00.28.64.86.86 0 00.64.28 1.11 1.11 0 00.69-.24.84.84 0 00.3-.68V98.52h4V145a.88.88 0 00.28.65.89.89 0 00.65.27 1.09 1.09 0 00.68-.24.84.84 0 00.3-.68v-26.1h8.26l12 26.43a.87.87 0 00.86.55 1.2 1.2 0 00.69-.21.75.75 0 00.3-.65 9.81 9.81 0 00-.67-1.69c-.46-1-1-2.25-1.7-3.73s-1.42-3.08-2.21-4.81-1.57-3.36-2.29-4.93-1.35-2.91-1.88-4.06-3-6.57-3.12-6.9H303a3.49 3.49 0 00.65-.06 11.82 11.82 0 004-1.3 11.1 11.1 0 003.11-2.46 11.33 11.33 0 002.77-7.52v-.6a1.89 1.89 0 01.37-1.38 3.8 3.8 0 00.36-1.78zm-3.42 7.46a9.67 9.67 0 01-2 3 9.32 9.32 0 01-3 2 9 9 0 01-3.61.74h-11V98.52h11a9.11 9.11 0 013.58.7 9.54 9.54 0 012.93 1.94 1.48 1.48 0 01.25 1.54 3.09 3.09 0 00-.24 1.1 2.72 2.72 0 001.74 2.54 1.44 1.44 0 011 1.26 9.43 9.43 0 01-.65 3.66z"/>
      <path class="supermassiveLogoOrange supermassiveLogoWhite" fill="transparent" d="M177.67 101.36a2.67 2.67 0 01-1-2 2.86 2.86 0 015.72 0 2.71 2.71 0 01-1.21 2.23 1.19 1.19 0 00-.73 1.17v31.93a11.52 11.52 0 01-1 4.68 12 12 0 01-2.7 3.88 13 13 0 01-4 2.65 12.26 12.26 0 01-4.9 1h-5a13.27 13.27 0 01-9.1-3.57 12.31 12.31 0 01-2.76-3.89 11.3 11.3 0 01-1-4.74V98.49a.86.86 0 01.3-.65 1 1 0 011.41 0 .86.86 0 01.3.65v36.11a9.17 9.17 0 00.88 4 10.73 10.73 0 002.36 3.29 11.23 11.23 0 003.46 2.25 10.74 10.74 0 004.17.83h5a10.61 10.61 0 007.5-3.08 10.78 10.78 0 002.26-3.29 9.44 9.44 0 00.85-4v-31.88c0-.56-.15-.87-.81-1.36z"/>
      <path class="supermassiveLogoOrange supermassiveLogoWhite" fill="transparent" d="M222.56 103.88a12.19 12.19 0 00-6.32-6.32 11.17 11.17 0 00-4.62-1h-18.54c-.62 0-.92.33-.92 1v42.85a1.26 1.26 0 01-.67 1.14 2.72 2.72 0 104.34 2.18 2.7 2.7 0 00-1.07-2.16 1.5 1.5 0 01-.69-1.16V98.52h4V145a.89.89 0 00.31.65 1 1 0 00.68.27 1.21 1.21 0 00.71-.24.82.82 0 00.34-.68v-24.61h11.52a11.49 11.49 0 004.62-.93 11.64 11.64 0 003.76-2.55 12.86 12.86 0 002.56-3.79 11.71 11.71 0 000-9.24zm-1.76 8.47a10.27 10.27 0 01-2.15 3.17 10.47 10.47 0 01-3.18 2.16 9.48 9.48 0 01-3.85.8H200.1v-20h11.52a9.32 9.32 0 013.85.8 10.44 10.44 0 013.18 2.15 10.32 10.32 0 012.15 3.18 9.66 9.66 0 010 7.7z"/>
      <path class="supermassiveLogoOrange supermassiveLogoWhite" fill="transparent" d="M538 114.94c.42.9.91.91 1.45 1.13a2.71 2.71 0 011.62 2.48 2.64 2.64 0 01-.22 1.06c-.3.74-.76.84-.36 1.81l5 13 14.72-37.21a.86.86 0 01.93-.61.91.91 0 01.65.27.92.92 0 01.27.65 15.8 15.8 0 01-.61 1.73c-.41 1.06-.95 2.47-1.64 4.21l-2.3 6c-.87 2.24-1.77 4.54-2.72 6.9s-1.87 4.69-2.77 7-1.73 4.41-2.49 6.32-1.41 3.52-1.94 4.83-.89 2.16-1 2.53l2 5.24 17.87-45a.84.84 0 01.92-.61.91.91 0 01.65.27.94.94 0 01.28.65c0 .08-.26.78-.78 2.09s-1.17 3-2 5.15-1.77 4.52-2.83 7.21-2.18 5.46-3.33 8.32-2.28 5.67-3.39 8.47-2.12 5.33-3 7.63-1.69 4.24-2.31 5.83-1 2.59-1.17 3.05a.86.86 0 01-.86.61 3.22 3.22 0 00-.46-.24.85.85 0 01-.4-.37c-.16-.41-.56-1.42-1.17-3s-1.37-3.56-2.25-5.86-1.87-4.84-3-7.63c-.86-2.21-1.72-4.44-2.6-6.68-.36-.84-.87-.79-1.5-1.09a2.73 2.73 0 01-1.31-3.55 2.54 2.54 0 00.32-1.8c-.48-1.25-.95-2.48-1.41-3.7-1-2.71-1.94-5.12-2.74-7.21s-1.45-3.8-1.94-5.12-.74-2-.74-2a1 1 0 01.28-.71.89.89 0 01.64-.27.85.85 0 01.93.61zM140.67 169.59a25.32 25.32 0 00-3.85-6.26 1.76 1.76 0 01-.4-1.18 2.32 2.32 0 000-.46 2.72 2.72 0 00-2.72-2.72 2.76 2.76 0 00-.57.06 2.22 2.22 0 01-1.35-.19 25.26 25.26 0 00-4.17-2.26 23.62 23.62 0 00-9.49-1.93H104a.91.91 0 00-.7.3 1.1 1.1 0 00-.28.74v47a1 1 0 00.25.68.82.82 0 00.67.3.86.86 0 001-1v-46.12h4.23v46a1.09 1.09 0 00.27.74.93.93 0 00.71.3l8-.06a24.7 24.7 0 009.49-2 24.12 24.12 0 007.78-5.21 24.91 24.91 0 005.24-7.74 24.39 24.39 0 000-19zm-1.75 18.2a22.68 22.68 0 01-4.84 7.12 23.12 23.12 0 01-7.16 4.81 22.49 22.49 0 01-8.76 1.84c-1.18 0-2.37.06-3.55.06h-3.56v-45.07H118.16a22.13 22.13 0 018.79 1.78 24 24 0 013.81 2.07c.43.28.26.95.27 1.14s0 .15 0 .22a2.72 2.72 0 002.72 2.72 3.18 3.18 0 00.62-.07 1.12 1.12 0 011.06.16 23.33 23.33 0 013.5 5.75 22.18 22.18 0 011.78 8.8 21.72 21.72 0 01-1.79 8.67z"/>
    </g>
    <g id="Layer_3" data-name="Layer 3">
      <circle class="supermassiveLogoOrange" fill="transparent" cx="39.65" cy="129.16" r="22.58"/>
      <path class="supermassiveLogoWhite" fill="transparent" d="M21.85 140.86C4.83 166.07-3.55 186.44 2.16 191c3.58 2.88 12.86-1.76 23.9-10.52M44 164.42C51.27 157 58.91 148.29 67.21 138c28.44-35.33 45.44-68.85 38-74.87s-36.65 17.72-65.09 53.04c-4.1 5.1-8 10.15-11.55 15.09M27.59 179.4a171.84 171.84 0 0015-13.5"/>
      <path class="supermassiveLogoWhite" fill="transparent" d="M82 72.91c-.92 10.68-2.35 22.08-4.29 33.87-9.36 56.63-27.21 100.84-39.88 98.75-9.3-1.54-13-32.87-10.72-69.38M28.58 123.19c.85-7.6 1.94-15.92 3.27-24C41.2 42.56 59.06-1.65 71.73.45c9.92 1.64 13.72 31.18 10.41 71.11"/>
      <path class="supermassiveLogoWhite" fill="transparent" d="M63.23 194c-10.83-12.49-24-35.9-36.31-67.28C8.67 80.26 1.49 39.64 10.87 36c5.4-2.12 13.79 6.25 24.56 24.5M55 98.82c2.26 5.21 3.51 8.39 5.92 14.51 18.24 46.42 25.93 92.71 16 90.73a9 9 0 01-1.92-.66M38.74 65.49A243.53 243.53 0 0153 94.36M18.75 115.48a25.2 25.2 0 00-1.14 24.72M24.46 109.31a32.28 32.28 0 00-2.85 2.63"/>
      <path class="supermassiveLogoWhite" fill="transparent" d="M43.71 104.34a22.11 22.11 0 00-3.93-.31 22.33 22.33 0 00-9.1 1.72M38.66 153.75h1.12a24.86 24.86 0 0024.87-24.86 24.4 24.4 0 00-16-23.24M26.55 149.91a26.11 26.11 0 008.9 3.49M22.19 124.49c-1.1 30.26 0 49.94 10.4 76.17M71.73.45C52 2.8 30.44 62.39 23.33 117.13M42.56 165.9c11.13 18.58 23.07 32.85 33.12 37.77M8.24 38.76C-.52 69.08 19.24 127 42.56 165.9M82.14 71.56a112.79 112.79 0 0119.57-9.38M26.64 126C41 105.12 60.07 84.77 82.14 71.56M.43 185.22c1.36-12.27 9.56-34 21.42-51.76"/>
    </g>
  </g>
</svg>
